# xmcd
#
# Track frame offsets:
#	150
#	18899
#	38604
#	58123
#	82308
#	108169
#	124457
#	144133
#	168291
#	195237
#	216929
#	241696
#
# Disc length: 3542 seconds
#
# Revision: 2
# Processed by: cddbd v1.5.2PL0 Copyright (c) Steve Scherf et al.
# Submitted via: audiograbber 1.83.01
#
DISCID=980dd40c
DTITLE=Michael Fitz - Solo live
DYEAR=2009
DGENRE=
TTITLE0=Wohie
TTITLE1=Was i bin
TTITLE2=Briaf an mi seiba
TTITLE3=Hoam
TTITLE4=Ganz oben
TTITLE5=Die Liab
TTITLE6=Paradies
TTITLE7=Du bist schee
TTITLE8=Dumma Bua
TTITLE9=Nackert
TTITLE10=Lass ned los
TTITLE11=Mantra
EXTD=
EXTT0=
EXTT1=
EXTT2=
EXTT3=
EXTT4=
EXTT5=
EXTT6=
EXTT7=
EXTT8=
EXTT9=
EXTT10=
EXTT11=
PLAYORDER=
